<?xml version="1.0" standalone="no"?>
<!DOCTYPE svg PUBLIC "-//W3C//DTD SVG 20010904//EN"
 "http://www.w3.org/TR/2001/REC-SVG-20010904/DTD/svg10.dtd">
<svg version="1.0" xmlns="http://www.w3.org/2000/svg"
 width="645.000000pt" height="645.000000pt" viewBox="0 0 645.000000 645.000000"
 preserveAspectRatio="xMidYMid meet">
<metadata>
Created by potrace 1.11, written by Peter Selinger 2001-2013
</metadata>
<g transform="translate(0.000000,645.000000) scale(0.100000,-0.100000)"
fill="#000000" stroke="none">
<path d="M2920 6419 c-730 -76 -1399 -386 -1913 -888 -276 -270 -449 -501
-619 -827 -166 -320 -271 -644 -330 -1024 -19 -127 -22 -183 -22 -450 0 -267
3 -323 22 -450 59 -380 164 -704 330 -1024 170 -326 343 -557 619 -827 520
-508 1187 -814 1932 -889 133 -13 449 -13 582 0 745 75 1412 381 1932 889 276
270 449 501 619 827 166 320 271 644 330 1024 19 127 22 183 22 450 0 267 -3
323 -22 450 -59 380 -164 704 -330 1024 -170 326 -343 557 -619 827 -520 508
-1187 814 -1932 889 -121 12 -479 11 -601 -1z m-375 -773 c285 -50 421 -205
618 -707 36 -90 342 -848 681 -1684 422 -1040 632 -1545 664 -1599 53 -88 116
-150 163 -160 17 -3 74 -6 125 -6 l94 0 0 -231 0 -232 -222 6 c-251 7 -288 14
-416 78 -116 59 -194 145 -266 294 -29 61 -228 572 -442 1137 -214 564 -392
1021 -396 1014 -6 -11 -890 -2329 -941 -2469 l-21 -57 -309 0 c-243 0 -308 3
-304 13 3 6 298 730 656 1608 l652 1596 -120 321 c-66 177 -134 349 -153 384
-42 81 -108 147 -182 183 -54 26 -68 29 -212 33 l-154 5 0 227 0 227 58 12
c120 23 314 27 427 7z"/>
</g>
</svg>
